<svg width="15" height="14" viewBox="0 0 15 14" fill="none" xmlns="http://www.w3.org/2000/svg">
                            <path fill-rule="evenodd" clip-rule="evenodd"
                                d="M7.28221 0.0872803C7.44775 0.0872803 7.60651 0.153021 7.72356 0.27004C7.84062 0.38706 7.90638 0.545772 7.90638 0.711263V6.3271H13.5239C13.6894 6.3271 13.8482 6.39284 13.9652 6.50986C14.0823 6.62688 14.148 6.78559 14.148 6.95109C14.148 7.11658 14.0823 7.27529 13.9652 7.39231C13.8482 7.50933 13.6894 7.57507 13.5239 7.57507H7.90638V13.1909C7.90638 13.3564 7.84062 13.5151 7.72356 13.6321C7.60651 13.7492 7.44775 13.8149 7.28221 13.8149C7.11667 13.8149 6.95791 13.7492 6.84086 13.6321C6.7238 13.5151 6.65804 13.3564 6.65804 13.1909V7.57507H1.04055C0.875009 7.57507 0.71625 7.50933 0.599196 7.39231C0.482142 7.27529 0.416382 7.11658 0.416382 6.95109C0.416382 6.78559 0.482142 6.62688 0.599196 6.50986C0.71625 6.39284 0.875009 6.3271 1.04055 6.3271H6.65804V0.711263C6.65804 0.545772 6.7238 0.38706 6.84086 0.27004C6.95791 0.153021 7.11667 0.0872803 7.28221 0.0872803Z"
                                fill="#CDCDEC" />
                        </svg>