<svg width="16" height="13" viewBox="0 0 16 13" fill="none" xmlns="http://www.w3.org/2000/svg">
            <!-- Task name -->
            <path fill-rule="evenodd" clip-rule="evenodd"
                d="M0 1.19348C0 0.994569 0.0702378 0.803804 0.195262 0.663151C0.320286 0.522499 0.489856 0.443481 0.666667 0.443481H15.3333C15.5101 0.443481 15.6797 0.522499 15.8047 0.663151C15.9298 0.803804 16 0.994569 16 1.19348C16 1.39239 15.9298 1.58316 15.8047 1.72381C15.6797 1.86446 15.5101 1.94348 15.3333 1.94348H0.666667C0.489856 1.94348 0.320286 1.86446 0.195262 1.72381C0.0702378 1.58316 0 1.39239 0 1.19348ZM0 6.44348C0 6.24457 0.0702378 6.0538 0.195262 5.91315C0.320286 5.7725 0.489856 5.69348 0.666667 5.69348H15.3333C15.5101 5.69348 15.6797 5.7725 15.8047 5.91315C15.9298 6.0538 16 6.24457 16 6.44348C16 6.64239 15.9298 6.83316 15.8047 6.97381C15.6797 7.11446 15.5101 7.19348 15.3333 7.19348H0.666667C0.489856 7.19348 0.320286 7.11446 0.195262 6.97381C0.0702378 6.83316 0 6.64239 0 6.44348ZM0 11.6935C0 11.4946 0.0702378 11.3038 0.195262 11.1632C0.320286 11.0225 0.489856 10.9435 0.666667 10.9435H8C8.17681 10.9435 8.34638 11.0225 8.4714 11.1632C8.59643 11.3038 8.66667 11.4946 8.66667 11.6935C8.66667 11.8924 8.59643 12.0832 8.4714 12.2238C8.34638 12.3645 8.17681 12.4435 8 12.4435H0.666667C0.489856 12.4435 0.320286 12.3645 0.195262 12.2238C0.0702378 12.0832 0 11.8924 0 11.6935Z"
                fill="#567EE3" />
        </svg>