 <svg width="14" height="15" viewBox="0 0 14 15" fill="none" xmlns="http://www.w3.org/2000/svg">
                <path
                    d="M9.74121 2.93486L10.8659 1.80952C11.1003 1.57507 11.4183 1.44336 11.7499 1.44336C12.0814 1.44336 12.3994 1.57507 12.6339 1.80952C12.8683 2.04398 13 2.36196 13 2.69352C13 3.02509 12.8683 3.34307 12.6339 3.57752L5.55454 10.6569C5.20209 11.0091 4.76746 11.268 4.28988 11.4102L2.49988 11.9435L3.03321 10.1535C3.1754 9.67595 3.4343 9.24131 3.78654 8.88886L9.74121 2.93486ZM9.74121 2.93486L11.4999 4.69352M10.4999 9.27686V12.4435C10.4999 12.8413 10.3418 13.2229 10.0605 13.5042C9.77923 13.7855 9.3977 13.9435 8.99988 13.9435H1.99988C1.60205 13.9435 1.22052 13.7855 0.939218 13.5042C0.657913 13.2229 0.499878 12.8413 0.499878 12.4435V5.44352C0.499878 5.0457 0.657913 4.66417 0.939218 4.38286C1.22052 4.10156 1.60205 3.94352 1.99988 3.94352H5.16654"
                    stroke="#CDCDEC" stroke-linecap="round" stroke-linejoin="round" />
            </svg>