<svg width="13" height="13" viewBox="0 0 13 13" fill="none" xmlns="http://www.w3.org/2000/svg">
                <path fill-rule="evenodd" clip-rule="evenodd"
                    d="M0.202821 0.663896C0.332856 0.534209 0.509124 0.461365 0.692907 0.461365C0.87669 0.461365 1.05296 0.534209 1.18299 0.663896L6.24105 5.71471L11.2991 0.663896C11.3626 0.595856 11.4392 0.541283 11.5242 0.503433C11.6093 0.465582 11.7011 0.44523 11.7942 0.443589C11.8874 0.441949 11.9799 0.459053 12.0662 0.493884C12.1526 0.528714 12.231 0.580556 12.2969 0.646317C12.3627 0.712078 12.4146 0.790411 12.4495 0.876642C12.4844 0.962874 12.5015 1.05524 12.4999 1.14822C12.4982 1.24121 12.4779 1.33291 12.44 1.41786C12.4021 1.50281 12.3474 1.57927 12.2793 1.64267L7.22122 6.69348L12.2793 11.7443C12.3474 11.8077 12.4021 11.8842 12.44 11.9691C12.4779 12.0541 12.4982 12.1458 12.4999 12.2387C12.5015 12.3317 12.4844 12.4241 12.4495 12.5103C12.4146 12.5966 12.3627 12.6749 12.2969 12.7406C12.231 12.8064 12.1526 12.8582 12.0662 12.8931C11.9799 12.9279 11.8874 12.945 11.7942 12.9434C11.7011 12.9417 11.6093 12.9214 11.5242 12.8835C11.4392 12.8457 11.3626 12.7911 11.2991 12.7231L6.24105 7.67225L1.18299 12.7231C1.05153 12.8454 0.87764 12.912 0.697972 12.9088C0.518304 12.9057 0.34688 12.833 0.219815 12.7061C0.0927511 12.5792 0.0199671 12.408 0.0167971 12.2286C0.0136271 12.0492 0.0803184 11.8756 0.202821 11.7443L5.26087 6.69348L0.202821 1.64267C0.0729482 1.51282 0 1.3368 0 1.15328C0 0.969761 0.0729482 0.793745 0.202821 0.663896Z"
                    fill="#CDCDEC" />
            </svg>