<svg width="16" height="16" viewBox="0 0 16 16" fill="none" xmlns="http://www.w3.org/2000/svg">
            <path fill-rule="evenodd" clip-rule="evenodd"
                d="M8.16669 0.443481C4.02438 0.443481 0.666687 3.80117 0.666687 7.94348C0.666687 12.0858 4.02438 15.4435 8.16669 15.4435C12.309 15.4435 15.6667 12.0858 15.6667 7.94348C15.6667 3.80117 12.309 0.443481 8.16669 0.443481ZM8.74361 3.3281C8.74361 3.17509 8.68283 3.02834 8.57463 2.92015C8.46644 2.81196 8.3197 2.75117 8.16669 2.75117C8.01368 2.75117 7.86694 2.81196 7.75874 2.92015C7.65055 3.02834 7.58976 3.17509 7.58976 3.3281V7.94348C7.58976 8.26194 7.84823 8.5204 8.16669 8.5204H11.6282C11.7812 8.5204 11.928 8.45962 12.0362 8.35143C12.1444 8.24323 12.2051 8.09649 12.2051 7.94348C12.2051 7.79047 12.1444 7.64373 12.0362 7.53554C11.928 7.42734 11.7812 7.36656 11.6282 7.36656H8.74361V3.3281Z"
                fill="#567EE3" />
        </svg>